<svg width="90" height="104" viewBox="0 0 90 104" xmlns="http://www.w3.org/2000/svg" xmlns:xlink="http://www.w3.org/1999/xlink"><title>V2 Inverted Copy 3</title><defs><path id="a" d="M45 0L90 26 90 78 45 104 -2.13162821e-14 78 -4.97379915e-14 26z"/><path id="c" d="M-14 -6H102V110H-14z"/></defs><g fill="none" fill-rule="evenodd"><mask id="b" fill="#fff"><use xlink:href="#a"/></mask><g mask="url(#b)"><use fill="#18C0A8" xlink:href="#c"/><path stroke="#979797" d="M-13.5 -5.5H101.5V109.5H-13.5z"/></g><g mask="url(#b)"><g transform="translate(19 36)" fill="#FFF"><g transform="rotate(-180 26 16.5)"><path d="M.993 0C3.619 0 5.897 1.84 6.48 4.435L12.897 33H7.439L.03.03.993 0z"/><path d="M19.476 0c-2.626 0-4.904 1.84-5.487 4.435L7.572 33h5.458L20.438.03 19.476 0z"/></g><path d="M0 0h6.42c2.626 0 4.904 1.84 5.487 4.435L18.324 33h-5.458L5.458.03V33H0V0z"/><path d="M31.323 0h-6.42C22.278 0 20 1.84 19.417 4.435L13 33h5.458L25.865.03V33h5.458V0z"/></g></g></g></svg>